<?xml version="1.0" encoding="UTF-8"?>
<svg width="100pt" height="100pt" version="1.1" viewBox="0 0 100 100" xmlns="http://www.w3.org/2000/svg">
 <path d="m86.668 3.332h-73.336c-5.5117 0-10 4.4883-10 10v53.332c0 5.5117 4.4883 10 10 10h11.832l-1.8125 16.301c-0.15234 1.375 0.55859 2.7031 1.7891 3.332 0.48438 0.25 1.0078 0.37109 1.5273 0.37109 0.80469 0 1.6016-0.29297 2.2305-0.85547l21.273-19.145h36.496c5.5117 0 10-4.4883 10-10v-53.336c0-5.5117-4.4883-10-10-10zm-6.668 56.668h-60c-1.8438 0-3.332-1.4922-3.332-3.332 0-1.8398 1.4883-3.332 3.332-3.332h60c1.8438 0 3.332 1.4922 3.332 3.332 0 1.8398-1.4883 3.332-3.332 3.332zm0-16.668h-60c-1.8438 0-3.332-1.4922-3.332-3.332s1.4883-3.332 3.332-3.332h60c1.8438 0 3.332 1.4922 3.332 3.332s-1.4883 3.332-3.332 3.332zm0-16.664h-60c-1.8438 0-3.332-1.4961-3.332-3.3359 0-1.8398 1.4883-3.332 3.332-3.332h60c1.8438 0 3.332 1.4922 3.332 3.332 0 1.8398-1.4883 3.3359-3.332 3.3359z" fill="#f4f4f4"/>
</svg>
