<?xml version="1.0" encoding="UTF-8"?>
<svg width="100pt" height="100pt" version="1.1" viewBox="0 0 100 100" xmlns="http://www.w3.org/2000/svg">
 <g fill="#f4f4f4">
  <path d="m75.449 8.082-39.223 39.223-4.1914 20.66 20.66-4.1914 39.223-39.223zm-24.551 52.098-13.773 2.6953 2.6953-13.773z" fill-rule="evenodd"/>
  <path d="m98.504 10.18-8.6836-8.6836c-2.0977-2.0977-5.6875-2.0977-8.082 0l-3.5938 3.8906 16.469 16.766 3.8906-3.8906c2.0977-2.3945 2.0977-5.6875 0-8.082z" fill-rule="evenodd"/>
  <path d="m14.07 14.07h49.102l-6.5859 6.2891h-42.516c-4.1914 0-7.7852 3.5938-7.7852 7.7852v57.785c0 4.1914 3.5938 7.7852 7.7852 7.7852h57.785c4.1914 0 7.7852-3.5938 7.7852-7.7852v-42.516l6.2891-6.2891v48.801c0 7.7852-6.2891 14.07-14.07 14.07h-57.785c-7.7852 0-14.07-6.2891-14.07-14.07v-57.785c0-7.7852 6.2891-14.07 14.07-14.07z"/>
 </g>
</svg>
