<?xml version="1.0" encoding="UTF-8"?>
<svg width="100pt" height="100pt" version="1.1" viewBox="0 0 100 100" xmlns="http://www.w3.org/2000/svg">
 <g fill="#58c2b7">
  <path d="m68.75 3.125c-7.7656 0.003906-15.184 3.2266-20.484 8.9062-3.0117-0.74219-6.1016-1.1094-9.2031-1.0938-16.641 0-29.812 11.188-32.812 27.875l-3.125 18.75c-0.074219 0.45312 0.058594 0.91797 0.35938 1.2656 0.30078 0.35156 0.74219 0.55078 1.2031 0.54688h7.8125v20.312c0 0.41406 0.16406 0.8125 0.45703 1.1055s0.69141 0.45703 1.1055 0.45703h23.438v14.062c0 0.41406 0.16406 0.8125 0.45703 1.1055s0.69141 0.45703 1.1055 0.45703h29.688c0.41406 0 0.8125-0.16406 1.1055-0.45703s0.45703-0.69141 0.45703-1.1055v-35.938c10.047-0.27734 19.184-5.8984 23.965-14.738 4.7852-8.8438 4.4844-19.562-0.78125-28.125s-14.699-13.664-24.746-13.387zm-53.125 68.75v-3.125c3.5 0 9.375-0.60938 9.375-4.6875 0-0.86328 0.69922-1.5625 1.5625-1.5625s1.5625 0.69922 1.5625 1.5625c0 2.3438-1.2188 7.8125-12.5 7.8125zm9.375-21.094c-4.3125 0-7.8125-2.7969-7.8125-6.25 0-0.86328 0.69922-1.5625 1.5625-1.5625s1.5625 0.69922 1.5625 1.5625c0 1.6875 2.1406 3.125 4.6875 3.125s4.6875-1.4375 4.6875-3.125c0-0.86328 0.69922-1.5625 1.5625-1.5625s1.5625 0.69922 1.5625 1.5625c0 3.4531-3.5 6.25-7.8125 6.25zm43.75 5.4688c-6.6289 0-12.988-2.6328-17.676-7.3242-4.6914-4.6875-7.3242-11.047-7.3242-17.676s2.6328-12.988 7.3242-17.676c4.6875-4.6914 11.047-7.3242 17.676-7.3242s12.988 2.6328 17.676 7.3242c4.6914 4.6875 7.3242 11.047 7.3242 17.676s-2.6328 12.988-7.3242 17.676c-4.6875 4.6914-11.047 7.3242-17.676 7.3242z"/>
  <path d="m68.75 12.5c-4.9727 0-9.7422 1.9766-13.258 5.4922-3.5156 3.5156-5.4922 8.2852-5.4922 13.258s1.9766 9.7422 5.4922 13.258c3.5156 3.5156 8.2852 5.4922 13.258 5.4922s9.7422-1.9766 13.258-5.4922c3.5156-3.5156 5.4922-8.2852 5.4922-13.258s-1.9766-9.7422-5.4922-13.258c-3.5156-3.5156-8.2852-5.4922-13.258-5.4922zm9.8906 30.859-8.3281-8.3281v11.844c-1.0391 0.10938-2.0859 0.10938-3.125 0v-11.844l-8.3281 8.3281c-0.79297-0.68359-1.5352-1.4258-2.2188-2.2188l10.547-10.547v-14.891c1.0391-0.10938 2.0859-0.10938 3.125 0v14.891l10.547 10.547c-0.68359 0.79297-1.4258 1.5352-2.2188 2.2188z"/>
 </g>
</svg>
