<?xml version="1.0" encoding="UTF-8"?>
<svg width="100pt" height="100pt" version="1.1" viewBox="0 0 100 100" xmlns="http://www.w3.org/2000/svg">
 <path d="m48 74c0 1.3789 1.1211 2.5 2.5 2.5s2.5-1.1211 2.5-2.5v-34c0-1.3789-1.1211-2.5-2.5-2.5s-2.5 1.1211-2.5 2.5zm20.668 6.8633c-0.011719 0.33203-0.33203 0.63672-0.67578 0.63672h-34.984c-0.33594 0-0.66406-0.3125-0.67578-0.63672l-1.8359-44.008c-0.078125-1.9336-1.7109-3.4336-3.6406-3.3516-1.9336 0.078125-3.4336 1.7109-3.3516 3.6406l1.832 44.012c0.17187 4.0742 3.5859 7.3438 7.6719 7.3438h34.984c4.0938 0 7.5-3.2617 7.6719-7.3438l1.832-44.012c0.082031-1.9297-1.418-3.5625-3.3516-3.6406-1.9297-0.082031-3.5625 1.418-3.6406 3.3516zm-31.168-6.7891c0.042969 1.3789 1.1953 2.4648 2.5742 2.4258 1.3789-0.042969 2.4648-1.1953 2.4258-2.5742l-1-34c-0.042969-1.3789-1.1953-2.4648-2.5742-2.4258-1.3789 0.042969-2.4648 1.1953-2.4258 2.5742zm21-0.14844c-0.039062 1.3789 1.0469 2.5312 2.4258 2.5742 1.3789 0.039062 2.5312-1.0469 2.5742-2.4258l1-34c0.039062-1.3789-1.0469-2.5312-2.4258-2.5742-1.3789-0.039062-2.5312 1.0469-2.5742 2.4258zm17.5-50.926c1.9336 0 3.5 1.5664 3.5 3.5s-1.5664 3.5-3.5 3.5h-52c-1.9336 0-3.5-1.5664-3.5-3.5s1.5664-3.5 3.5-3.5h12.641l0.99219-3.9648c0.92578-3.7031 4.5508-6.5352 8.3633-6.5352h8.0078c3.8164 0 7.4375 2.832 8.3633 6.5352l0.99219 3.9648zm-19.859 0-0.56641-2.2695c-0.14453-0.58594-0.96875-1.2305-1.5703-1.2305h-8.0078c-0.60156 0-1.4258 0.64453-1.5703 1.2305l-0.56641 2.2695z" fill="#e53d00" fill-rule="evenodd"/>
</svg>
